<svg width="20" height="18" viewBox="0 0 20 18" fill="none" xmlns="http://www.w3.org/2000/svg">
<path d="M16 1H4C2.34315 1 1 2.34315 1 4V6C1 7.65685 2.34315 9 4 9H16C17.6569 9 19 7.65685 19 6V4C19 2.34315 17.6569 1 16 1Z" stroke="#6B7280" stroke-width="1.5" stroke-linecap="round" stroke-linejoin="round"/>
<path d="M16 9.00006H4C2.34315 9.00006 1 10.3432 1 12.0001V14.0001C1 15.6569 2.34315 17.0001 4 17.0001H16C17.6569 17.0001 19 15.6569 19 14.0001V12.0001C19 10.3432 17.6569 9.00006 16 9.00006Z" stroke="#6B7280" stroke-width="1.5" stroke-linecap="round" stroke-linejoin="round"/>
<path d="M5.00047 4.99994V5.00994" stroke="#111827" stroke-width="1.5" stroke-linecap="round" stroke-linejoin="round"/>
<path d="M5.00047 13V13.01" stroke="#111827" stroke-width="1.5" stroke-linecap="round" stroke-linejoin="round"/>
</svg>
